<svg width="34" height="40" viewBox="0 0 17 20" fill="none" xmlns="http://www.w3.org/2000/svg">
<path fill-rule="evenodd" clip-rule="evenodd" d="M6.57992 7.24975C8.04879 6.41365 9.84464 5.89648 11.6309 5.89648C13.4113 5.89648 14.906 6.41255 15.8455 7.32574C16.8082 8.26136 17.1367 9.56957 16.6278 10.9676C16.1899 12.1708 15.3113 13.2647 14.1233 14.2264C13.5127 14.7278 12.8513 15.1894 12.2079 15.637L12.1612 15.6694C11.5279 16.1098 10.9132 16.5373 10.3485 16.9935C9.7873 17.4472 9.35387 17.8713 8.8465 18.3786C8.79545 18.4298 8.74687 18.4831 8.68837 18.5474C8.6578 18.5809 8.62453 18.6174 8.58678 18.6582C8.48547 18.7676 8.36445 18.8929 8.22511 19.0096C7.94306 19.2459 7.55973 19.4681 7.05518 19.4681C6.80929 19.4681 6.5825 19.4143 6.38904 19.2903C6.19512 19.1659 6.0763 18.9976 6.00179 18.8396C5.93035 18.6882 5.89396 18.5337 5.87033 18.4212C5.86032 18.3736 5.85281 18.3355 5.8465 18.3036C5.83483 18.2445 5.82728 18.2062 5.81558 18.1665C5.81385 18.1606 5.81223 18.1547 5.81073 18.1488C5.68503 17.656 5.55835 17.256 5.34229 16.8314L5.34147 16.8298C5.11735 16.3854 4.82042 15.9669 4.49693 15.5112L4.49562 15.5093C4.18078 15.0658 3.83985 14.5856 3.58015 14.0613C3.05583 13.0087 2.9884 11.8414 3.43094 10.6255C3.92755 9.26112 5.11845 8.08164 6.57992 7.24975Z" fill="black"/>
<path fill-rule="evenodd" clip-rule="evenodd" d="M13.6839 7.52509C13.6839 3.8607 10.7196 0.896484 7.05526 0.896484C4.1148 0.896484 1.92997 2.69541 0.98553 4.8896C0.0239666 7.12357 0.406162 9.78417 1.68254 11.9136C2.17607 12.737 2.65566 13.3591 3.15011 14.0004L3.15352 14.0048C3.63599 14.6306 4.10095 15.2337 4.50345 15.8793L4.50407 15.8804C4.96265 16.6121 5.33229 17.395 5.66098 18.1924C5.72298 18.3428 5.80043 18.5205 5.90093 18.688C6.10393 19.0263 6.45689 19.4068 7.05526 19.4068C7.65367 19.4068 8.00687 19.0263 8.20926 18.6867C8.30945 18.5186 8.38608 18.3404 8.44721 18.189C8.75855 17.4179 9.09169 16.6399 9.5273 15.9304C9.93376 15.2683 10.4347 14.6774 10.9229 14.0442C11.428 13.3892 11.9328 12.7318 12.3657 12.0259C13.2168 10.6651 13.6839 9.14758 13.6839 7.52509Z" fill="black"/>
<path fill-rule="evenodd" clip-rule="evenodd" d="M1.42651 7.52509C1.42651 4.41299 3.94302 1.89648 7.05512 1.89648C10.1672 1.89648 12.6837 4.41299 12.6837 7.52509C12.6837 8.94861 12.2756 10.2845 11.5166 11.4973L11.5142 11.5013C11.0965 12.1828 10.607 12.8162 10.1195 13.4483C9.65401 14.0519 9.17201 14.677 8.75018 15.3493C8.31985 16.036 8.01907 16.6757 7.69433 17.3866C7.6512 17.4815 7.60639 17.5954 7.56595 17.6983C7.48617 17.9011 7.42488 18.0492 7.35009 18.1748C7.23292 18.3714 7.14836 18.4068 7.05512 18.4068C6.96183 18.4068 6.87703 18.3714 6.75828 18.1735C6.68401 18.0497 6.62215 17.9032 6.54301 17.707C6.50071 17.6022 6.45347 17.4851 6.40663 17.3854C6.08802 16.6688 5.77991 16.0334 5.35172 15.35C4.92401 14.6639 4.43011 14.023 3.937 13.3834C3.45207 12.7544 2.98615 12.1479 2.58612 11.4994C2.00618 10.5626 1.63072 9.55258 1.48953 8.48592C1.44778 8.17046 1.42651 7.85004 1.42651 7.52509Z" fill="#FF96BC"/>
</svg>
